<?xml version="1.0" encoding="UTF-8" standalone="no"?>
<!DOCTYPE svg PUBLIC "-//W3C//DTD SVG 1.1//EN" "http://www.w3.org/Graphics/SVG/1.1/DTD/svg11.dtd">
<!-- Created with Vectornator (http://vectornator.io/) -->
<svg height="100%" stroke-miterlimit="10" style="fill-rule:nonzero;clip-rule:evenodd;stroke-linecap:round;stroke-linejoin:round;" version="1.1" viewBox="0 0 43 38" width="100%" xml:space="preserve" xmlns="http://www.w3.org/2000/svg" xmlns:vectornator="http://vectornator.io" xmlns:xlink="http://www.w3.org/1999/xlink">
<defs/>
<g id="Untitled" vectornator:layerName="Untitled">
<path d="M36.3012 6.65222C35.446 5.81139 34.4306 5.14438 33.313 4.68931C32.1954 4.23423 30.9975 4 29.7878 4C28.5781 4 27.3802 4.23423 26.2626 4.68931C25.145 5.14438 24.1296 5.81139 23.2744 6.65222L21.4996 8.39642L19.7247 6.65222C17.9972 4.9546 15.6543 4.00088 13.2113 4.00088C10.7683 4.00088 8.42539 4.9546 6.69793 6.65222C4.97048 8.34984 4 10.6523 4 13.0531C4 15.4539 4.97048 17.7564 6.69793 19.454L8.47279 21.1982L21.4996 34L34.5263 21.1982L36.3012 19.454C37.1568 18.6136 37.8355 17.6157 38.2986 16.5174C38.7617 15.4191 39 14.2419 39 13.0531C39 11.8643 38.7617 10.6871 38.2986 9.5888C37.8355 8.49052 37.1568 7.49265 36.3012 6.65222Z" fill="#ffb7c3" fill-rule="nonzero" opacity="1" stroke="none"/>
</g>
</svg>
